<?xml version="1.0" standalone="no"?>
<!DOCTYPE svg PUBLIC "-//W3C//DTD SVG 1.1//EN" "http://www.w3.org/Graphics/SVG/1.1/DTD/svg11.dtd">
<!--Generator: Xara Designer (www.xara.com), SVG filter version: 6.2.0.0-->
<svg stroke-width="0.501" stroke-linejoin="bevel" fill-rule="evenodd" xmlns:xlink="http://www.w3.org/1999/xlink" xmlns="http://www.w3.org/2000/svg" version="1.1" overflow="visible" width="525pt" height="225pt" viewBox="0 0 525 225">
 <defs>
	</defs>
 <g id="Document" fill="none" stroke="black" font-family="Times New Roman" font-size="16" transform="scale(1 -1)">
  <g id="Spread" transform="translate(0 -225)">
   <g id="logo">
    <g id="Group" stroke-linejoin="round" stroke="none" stroke-width="3.813" stroke-miterlimit="79.8403193612775">
     <path d="M 312.433,0.001 L 312.433,21.596 L 291.108,21.596 L 291.108,41.928 L 312.433,41.928 L 312.433,79.065 L 310.593,79.401 C 304.882,80.623 299.258,82.773 293.924,85.895 C 266.627,101.843 257.265,137.225 273.024,164.868 C 288.794,192.509 323.728,201.987 351.025,186.032 C 378.326,170.07 387.683,134.688 371.921,107.055 C 363.462,92.205 349.456,82.597 334.08,79.363 L 332.513,79.065 L 332.513,41.928 L 353.857,41.928 L 353.857,21.596 L 332.513,21.596 L 332.513,0.001 L 312.433,0.001 Z M 321.482,98.48 C 334.605,98.152 347.513,104.897 354.535,117.215 C 364.755,135.131 358.678,158.077 340.983,168.426 C 323.292,178.768 300.634,172.618 290.411,154.705 C 280.198,136.783 286.279,113.842 303.974,103.502 C 309.499,100.271 315.514,98.642 321.482,98.48 Z" fill="#fdc58b" fill-rule="evenodd" marker-start="none" marker-end="none"/>
     <path d="M 202.237,83.64 C 201.645,83.637 201.03,83.64 200.434,83.654 C 191.667,83.891 182.827,86.272 174.715,91.033 C 148.708,106.221 139.791,139.919 154.802,166.236 C 169.809,192.562 203.088,201.588 229.085,186.391 C 231.523,184.967 233.81,183.388 235.938,181.658 L 237.156,180.613 L 237.156,193.78 L 256.286,193.78 L 256.286,83.654 L 237.156,83.654 L 237.156,96.786 L 237.038,96.674 C 227.262,88.29 214.871,83.743 202.237,83.64 Z M 200.948,103.022 C 213.449,102.69 225.739,109.126 232.431,120.864 C 242.165,137.923 236.374,159.783 219.52,169.624 C 202.675,179.474 181.093,173.623 171.368,156.559 C 161.634,139.5 167.422,117.641 184.279,107.799 C 189.537,104.709 195.264,103.177 200.948,103.022 Z" fill="#af7a7a" fill-rule="evenodd" marker-start="none" marker-end="none"/>
     <path d="M 470.367,83.678 C 461.59,83.905 452.756,86.293 444.633,91.054 C 418.635,106.244 409.715,139.941 424.727,166.258 C 439.742,192.583 473.013,201.611 499.012,186.414 C 512.823,178.34 521.809,165.048 524.966,150.404 L 524.994,150.226 L 505.18,150.226 L 504.849,151.232 C 502.074,158.726 496.821,165.332 489.446,169.647 C 472.6,179.495 451.026,173.639 441.294,156.573 C 431.56,139.522 437.348,117.662 454.197,107.82 C 459.463,104.731 465.19,103.193 470.874,103.033 C 483.375,102.72 495.672,109.143 502.357,120.879 C 503.273,122.476 504.049,124.116 504.687,125.791 L 505.2,127.237 L 525.001,127.237 L 524.879,126.612 C 523.713,121.326 521.724,116.135 518.916,111.194 C 508.597,93.107 489.644,83.172 470.367,83.678 Z" fill="#af7a7a" fill-rule="evenodd" marker-start="none" marker-end="none"/>
     <path d="M 59.759,83.527 L 59.759,153.718 L 59.739,153.718 L 59.706,155.267 C 59.246,161.865 55.671,168.112 49.595,171.656 C 39.876,177.335 27.447,173.96 21.839,164.123 C 20.313,161.444 19.438,158.546 19.194,155.638 L 19.128,154.435 L 19.128,154.296 L 19.142,153.718 L 19.128,153.718 L 19.128,83.653 L -0.001,83.653 L -0.001,193.779 L 19.128,193.779 L 19.128,188.066 L 20.446,188.844 C 32.128,195.328 46.781,195.662 59.149,188.424 C 62.833,186.271 66.05,183.609 68.739,180.57 L 69.339,179.858 L 69.741,180.363 C 81.904,194.264 102.441,198.072 118.942,188.424 C 130.73,181.534 137.68,169.402 138.567,156.616 L 138.631,153.74 L 138.631,83.556 L 119.514,83.556 L 119.514,153.74 L 119.521,153.74 L 119.496,155.267 C 119.029,161.865 115.452,168.112 109.389,171.656 C 99.674,177.335 87.236,173.96 81.627,164.123 C 79.877,161.058 79.004,157.722 78.917,154.398 L 78.931,153.718 L 78.881,153.718 L 78.881,83.527 L 59.759,83.527 Z" fill="#af7a7a" fill-rule="evenodd" marker-start="none" marker-end="none"/>
     <g id="Group_1" fill="#af7a7a">
      <path d="M 388.769,83.819 L 388.769,193.78 L 407.877,193.78 L 407.877,83.819 L 388.769,83.819 Z" fill-rule="evenodd" marker-start="none" marker-end="none"/>
      <path d="M 398.327,224.999 C 404.623,224.997 409.731,219.82 409.729,213.445 C 409.727,207.07 404.615,201.897 398.319,201.899 C 392.023,201.901 386.915,207.078 386.917,213.453 C 386.919,219.828 392.031,225.001 398.327,224.999 Z" marker-start="none" marker-end="none"/>
     </g>
    </g>
   </g>
  </g>
 </g>
</svg>
